<?xml version="1.0" standalone="no"?><!DOCTYPE svg PUBLIC "-//W3C//DTD SVG 1.1//EN" "http://www.w3.org/Graphics/SVG/1.1/DTD/svg11.dtd"><svg t="1591269593072" class="icon" viewBox="0 0 1024 1024" version="1.1" xmlns="http://www.w3.org/2000/svg" p-id="640" xmlns:xlink="http://www.w3.org/1999/xlink" width="128" height="128"><defs><style type="text/css"></style></defs><path d="M965.404 342.766c-19.51-52.247-47.744-100.415-83.92-143.163-18.267-21.587-50.576-24.274-72.16-6.01-21.584 18.267-24.274 50.573-6.008 72.16C861.434 334.427 893.44 421.88 893.44 512c0 210.326-171.114 381.44-381.44 381.44-210.327 0-381.44-171.114-381.44-381.44 0-210.327 171.113-381.44 381.44-381.44 60.489 0 118.308 13.727 171.852 40.8 25.228 12.756 56.033 2.647 68.793-22.588 12.76-25.234 2.646-56.035-22.588-68.794C662.053 45.594 588.69 28.16 512 28.16c-65.295 0-128.664 12.8-188.347 38.044-57.622 24.373-109.36 59.251-153.78 103.67-44.418 44.418-79.298 96.157-103.669 153.778C40.96 383.334 28.16 446.705 28.16 512c0 65.295 12.8 128.666 38.044 188.347 24.373 57.622 59.251 109.36 103.67 153.78s96.157 79.298 153.78 103.669C383.335 983.04 446.703 995.84 512 995.84c65.295 0 128.666-12.8 188.348-38.044 57.622-24.371 109.36-59.251 153.778-103.67 44.419-44.418 79.299-96.157 103.67-153.78C983.04 640.667 995.84 577.297 995.84 512c0-58.207-10.24-115.145-30.436-169.234z" fill="#1296DB" p-id="641"></path><path d="M555.567 301.144c35.802 0 64.839-29.377 64.839-65.59 0-36.21-29.038-65.592-64.839-65.592-35.804 0-64.842 29.381-64.842 65.593s29.038 65.59 64.842 65.59z" fill="#1296DB" p-id="642"></path><path d="M411.675 500.513c8.404-42.974 23.366-131.316 32.25-172.038 3.756-17.219-9.154-21.864-20.226-21.864h-84.993c-22.48 0-27.332 13.664-27.332 13.664s-24.596 125.718-36.005 180.17c-3.619 17.287 4.44 24.804 21.931 24.804h85.817c14.415 0.002 24.938-6.283 28.558-24.736z" fill="#F4EA2A" p-id="643"></path><path d="M607.427 458.565c19.811-5.878 113.894-42.637 113.894-42.637V361.27l-113.962 31.703s-24.804-25.142-38.878-39.358c-14.004-14.211-19.403-26.236-38.876-26.236H503.71c-22.685 0-33.958 10.32-38.877 39.358-6.49 38.055-85.132 459.14-85.132 459.14h81.988l40.994-204.975 117.725 204.974h77.824L530.013 525.251l25.554-106.04s39.016 43.18 51.86 39.354z" fill="#1296DB" p-id="644"></path></svg>